<?xml version="1.0" encoding="UTF-8" standalone="no"?>
<!-- Created with Inkscape (http://www.inkscape.org/) -->

<svg
   version="1.1"
   id="svg1"
   width="297mm"
   height="210mm"
   viewBox="0 0 1122.5197 793.70079"
   sodipodi:docname="Host_Wayfinding (1).svg"
   inkscape:version="1.3.2 (091e20e, 2023-11-25)"
   xmlns:inkscape="http://www.inkscape.org/namespaces/inkscape"
   xmlns:sodipodi="http://sodipodi.sourceforge.net/DTD/sodipodi-0.dtd"
   xmlns="http://www.w3.org/2000/svg"
   xmlns:svg="http://www.w3.org/2000/svg">
  <defs
     id="defs1">
    <linearGradient
       id="swatch209"
       inkscape:swatch="solid">
      <stop
         style="stop-color:#000000;stop-opacity:1;"
         offset="0"
         id="stop209" />
    </linearGradient>
  </defs>
  <sodipodi:namedview
     id="namedview1"
     pagecolor="#ffffff"
     bordercolor="#000000"
     borderopacity="0.25"
     inkscape:showpageshadow="2"
     inkscape:pageopacity="0.0"
     inkscape:pagecheckerboard="0"
     inkscape:deskcolor="#d1d1d1"
     showgrid="false"
     inkscape:zoom="1.0180159"
     inkscape:cx="584.47024"
     inkscape:cy="341.84142"
     inkscape:window-width="1512"
     inkscape:window-height="831"
     inkscape:window-x="0"
     inkscape:window-y="33"
     inkscape:window-maximized="1"
     inkscape:current-layer="g1"
     inkscape:document-units="mm">
    <inkscape:page
       x="0"
       y="0"
       inkscape:label="1"
       id="page1"
       width="1122.5198"
       height="793.70074"
       margin="0"
       bleed="0" />
  </sodipodi:namedview>
  <g
     id="g1"
     inkscape:groupmode="layer"
     inkscape:label="1">
    <path
       id="path45"
       d="m 580.37123,241.99695 3.70703,98.9059 89.22117,0.31379 -2.17196,-99.15473 -90.75624,-0.0649"
       style="fill:#ffffff;fill-opacity:1;fill-rule:nonzero;stroke:#000000;stroke-width:2;stroke-dasharray:none;stroke-opacity:1" />
    <path
       id="path29"
       d="m 897.93229,94.062022 22.77276,87.902378 65.39513,-15.32341 -18.57587,-73.078365 -69.59202,0.499397"
       style="fill:#ffffff;fill-opacity:1;fill-rule:nonzero;stroke:#000000;stroke-width:2;stroke-dasharray:none;stroke-opacity:1" />
    <text
       xml:space="preserve"
       style="font-size:15.5398px;display:inline;fill:#000000;fill-opacity:1;stroke:#000000;stroke-width:2;stroke-dasharray:none;stroke-opacity:1"
       x="926.77319"
       y="152.95059"
       id="text6587-5-6-07"><tspan
         id="tspan6585-7-0-1"
         style="font-style:normal;font-variant:normal;font-weight:bold;font-stretch:normal;font-family:sans-serif;-inkscape-font-specification:'sans-serif Bold';fill:#000000;stroke:none;stroke-width:2;stroke-dasharray:none"
         x="926.77319"
         y="152.95059"
         sodipodi:role="line">209</tspan></text>
    <path
       id="path27"
       d="m 831.4512,92.654946 0.64508,65.746034 73.38881,0.95326 -16.41204,-66.27498 -57.62185,-0.424314"
       style="fill:#ffffff;fill-opacity:1;fill-rule:nonzero;stroke:#000000;stroke-width:2;stroke-dasharray:none;stroke-opacity:1" />
    <path
       id="path25"
       d="m 739.87846,92.795825 1.39631,109.305405 45.70878,0.65967 -2.96404,-109.511235 -44.14105,-0.45384"
       style="fill:#ffffff;fill-opacity:1;fill-rule:nonzero;stroke:#000000;stroke-width:2;stroke-dasharray:none;stroke-opacity:1" />
    <path
       id="path24"
       d="m 675.90412,91.860308 3.61714,109.728862 54.69874,1.86091 -3.48652,-111.4354 -54.82936,-0.154372"
       style="fill:#ffffff;fill-opacity:1;fill-rule:nonzero;stroke:#000000;stroke-width:2;stroke-dasharray:none;stroke-opacity:1" />
    <path
       id="path42"
       d="m 587.67096,489.15748 89.40894,9.91363 3.81312,139.23435 -88.69855,-9.83515 -4.52351,-139.31283"
       style="fill:#ffffff;fill-opacity:1;fill-rule:nonzero;stroke:#000000;stroke-width:2;stroke-dasharray:none;stroke-opacity:1" />
    <text
       xml:space="preserve"
       style="font-size:15.5398px;display:inline;fill:#000000;fill-opacity:1;stroke:#000000;stroke-width:2;stroke-dasharray:none;stroke-opacity:1"
       x="613.71765"
       y="530.81531"
       id="text6587-5-6"><tspan
         id="tspan6585-7-0"
         style="font-style:normal;font-variant:normal;font-weight:bold;font-stretch:normal;font-family:sans-serif;-inkscape-font-specification:'sans-serif Bold';fill:#000000;stroke:none;stroke-width:2;stroke-dasharray:none"
         x="613.71765"
         y="530.81531"
         sodipodi:role="line">202</tspan></text>
    <path
       id="path1"
       d="M 15.668353,96.095863 18.224059,207.68227 42.675573,206.12842 41.081725,94.914873 15.668353,96.095863"
       style="fill:#ffffff;fill-opacity:1;fill-rule:nonzero;stroke:#000000;stroke-width:2;stroke-dasharray:none;stroke-opacity:1" />
    <text
       xml:space="preserve"
       style="font-size:15.5398px;display:inline;fill:#000000;fill-opacity:1;stroke:#000000;stroke-width:2;stroke-dasharray:none;stroke-opacity:1"
       x="-190.72589"
       y="34.914219"
       id="text6587-5-2-1"
       transform="rotate(-90)"><tspan
         id="tspan6585-7-7-2"
         style="font-style:normal;font-variant:normal;font-weight:bold;font-stretch:normal;font-family:sans-serif;-inkscape-font-specification:'sans-serif Bold';fill:#000000;stroke:none;stroke-width:2;stroke-dasharray:none"
         x="-190.72589"
         y="34.914219"
         sodipodi:role="line">Laundry</tspan></text>
    <path
       id="path2"
       d="m 114.89188,95.876537 3.7266,111.643763 105.79488,-1.99417 -1.87145,-109.714554 -107.65003,0.06495"
       style="fill:#ffffff;fill-opacity:1;fill-rule:nonzero;stroke:#000000;stroke-width:2;stroke-dasharray:none;stroke-opacity:1" />
    <path
       id="path3"
       d="m 22.340955,248.77081 5.153876,183.83806 86.522569,9.24971 -4.03934,-193.52475 -87.637105,0.43698"
       style="fill:#ffffff;fill-opacity:1;fill-rule:nonzero;stroke:#000000;stroke-width:2;stroke-dasharray:none;stroke-opacity:1" />
    <path
       id="path5"
       d="m 50.044669,132.5473 1.915553,106.30652 210.548698,1.22823 61.74692,252.99804 -95.80151,-8.74867 -0.23842,22.37396 126.0601,14.96999 L 277.90932,216.20062 68.110179,214.70329 64.261917,134.06741 50.044669,132.5473"
       style="fill:#ffffff;fill-opacity:1;fill-rule:nonzero;stroke:#c8c8c8;stroke-width:2;stroke-dasharray:none;stroke-opacity:1" />
    <path
       id="path6"
       d="m 48.645967,95.723006 0.201681,29.883424 58.297912,-0.31888 -0.51196,-30.294232 -57.987633,0.729688"
       style="fill:#ffffff;fill-opacity:1;fill-rule:nonzero;stroke:#000000;stroke-width:2;stroke-dasharray:none;stroke-opacity:1" />
    <path
       id="path7"
       d="m 73.333456,132.87293 -0.7463,30.6384 35.332454,1.97817 -1.67468,-31.21035 -32.911474,-1.40622"
       style="fill:#ffffff;fill-opacity:1;fill-rule:nonzero;stroke:#000000;stroke-width:2;stroke-dasharray:none;stroke-opacity:1" />
    <path
       id="path8"
       d="m 74.148339,171.89135 0.170658,34.94482 34.574723,-0.35599 -1.5914,-34.82503 -33.153981,0.2362"
       style="fill:#ffffff;fill-opacity:1;fill-rule:nonzero;stroke:#000000;stroke-width:2;stroke-dasharray:none;stroke-opacity:1" />
    <path
       id="path10"
       d="m 269.79555,98.780101 2.8113,105.421599 8.22317,0.87902 44.73551,-10.09247 -3.85071,-98.655345 -51.91927,2.447196"
       style="fill:#ffffff;fill-opacity:1;fill-rule:nonzero;stroke:#c7c7c7;stroke-width:2;stroke-dasharray:none;stroke-opacity:1" />
    <path
       id="path11"
       d="m 329.58035,97.173945 4.32185,95.394115 91.35472,-22.36892 -18.35535,-72.972051 -77.32122,-0.05314"
       style="fill:#ffffff;fill-opacity:1;fill-rule:nonzero;stroke:#000000;stroke-width:2;stroke-dasharray:none;stroke-opacity:1" />
    <text
       xml:space="preserve"
       style="font-size:15.5398px;display:inline;fill:#000000;fill-opacity:1;stroke:#000000;stroke-width:2;stroke-dasharray:none;stroke-opacity:1"
       x="311.83133"
       y="247.96725"
       id="text6587-5-7-6-1-0-8-3"
       transform="rotate(-12.436214)"><tspan
         id="tspan6585-7-9-5-20-8-3-4"
         style="font-style:normal;font-variant:normal;font-weight:bold;font-stretch:normal;font-family:sans-serif;-inkscape-font-specification:'sans-serif Bold';fill:#000000;stroke:none;stroke-width:2;stroke-dasharray:none"
         x="311.83133"
         y="247.96725"
         sodipodi:role="line">Gym</tspan></text>
    <path
       id="path12"
       d="m 287.10171,214.63666 16.19078,65.64481 140.14016,-35.42903 -16.65699,-68.22193 -139.67395,38.00615"
       style="fill:#ffffff;fill-opacity:1;fill-rule:nonzero;stroke:#000000;stroke-width:2;stroke-dasharray:none;stroke-opacity:1" />
    <text
       xml:space="preserve"
       style="font-size:15.5398px;display:inline;fill:#000000;fill-opacity:1;stroke:#000000;stroke-width:2;stroke-dasharray:none;stroke-opacity:1"
       x="248.51147"
       y="310.93243"
       id="text6587-5-7-6-1-0-8"
       transform="rotate(-12.436214)"><tspan
         id="tspan6585-7-9-5-20-8-3"
         style="font-style:normal;font-variant:normal;font-weight:bold;font-stretch:normal;font-family:sans-serif;-inkscape-font-specification:'sans-serif Bold';fill:#000000;stroke:none;stroke-width:2;stroke-dasharray:none"
         x="248.51147"
         y="310.93243"
         sodipodi:role="line">Green room</tspan></text>
    <path
       id="path13"
       d="M 304.73283,287.52856 317.60037,339.45189 458.11369,303.925 445.35148,250.93371 304.73283,287.52856"
       style="fill:#ffffff;fill-opacity:1;fill-rule:nonzero;stroke:#000000;stroke-width:2;stroke-dasharray:none;stroke-opacity:1" />
    <path
       id="path14"
       d="m 320.33979,348.18283 17.93978,77.70364 140.75334,-38.60085 -19.5148,-75.74319 -139.17832,36.6404"
       style="fill:#ffffff;fill-opacity:1;fill-rule:nonzero;stroke:#000000;stroke-width:2;stroke-dasharray:none;stroke-opacity:1" />
    <text
       xml:space="preserve"
       style="font-size:15.5398px;display:inline;fill:#000000;fill-opacity:1;stroke:#000000;stroke-width:2;stroke-dasharray:none;stroke-opacity:1"
       x="346.53873"
       y="384.81796"
       id="text6587-5-8-2-0"><tspan
         id="tspan6585-7-1-2-7"
         style="font-style:normal;font-variant:normal;font-weight:bold;font-stretch:normal;font-family:sans-serif;-inkscape-font-specification:'sans-serif Bold';fill:#000000;stroke:none;stroke-width:2;stroke-dasharray:none"
         x="346.53873"
         y="384.81796"
         sodipodi:role="line">103</tspan></text>
    <text
       xml:space="preserve"
       style="font-size:15.5398px;display:inline;fill:#000000;fill-opacity:1;stroke:#000000;stroke-width:2;stroke-dasharray:none;stroke-opacity:1"
       x="327.10553"
       y="310.85312"
       id="text6587-5-8-2-6"><tspan
         id="tspan6585-7-1-2-1"
         style="font-style:normal;font-variant:normal;font-weight:bold;font-stretch:normal;font-family:sans-serif;-inkscape-font-specification:'sans-serif Bold';fill:#000000;stroke:none;stroke-width:2;stroke-dasharray:none"
         x="327.10553"
         y="310.85312"
         sodipodi:role="line">104</tspan></text>
    <path
       id="path15"
       d="m 342.1221,433.7637 10.91442,42.60614 148.56504,-0.54411 -20.79679,-80.95476 -138.68267,38.89273"
       style="fill:#ffffff;fill-opacity:1;fill-rule:nonzero;stroke:#000000;stroke-width:2;stroke-dasharray:none;stroke-opacity:1" />
    <text
       xml:space="preserve"
       style="font-size:15.5398px;display:inline;fill:#000000;fill-opacity:1;stroke:#000000;stroke-width:2;stroke-dasharray:none;stroke-opacity:1"
       x="362.98166"
       y="455.66742"
       id="text6587-5-8-2"><tspan
         id="tspan6585-7-1-2"
         style="font-style:normal;font-variant:normal;font-weight:bold;font-stretch:normal;font-family:sans-serif;-inkscape-font-specification:'sans-serif Bold';fill:#000000;stroke:none;stroke-width:2;stroke-dasharray:none"
         x="362.98166"
         y="455.66742"
         sodipodi:role="line">102</tspan></text>
    <path
       id="path16"
       d="m 354.75774,484.39385 9.3565,36.46663 151.94789,16.24379 -13.05619,-53.66196 -148.2482,0.95154"
       style="fill:#ffffff;fill-opacity:1;fill-rule:nonzero;stroke:#808080;stroke-width:2;stroke-dasharray:none;stroke-opacity:1" />
    <text
       xml:space="preserve"
       style="font-size:15.5398px;display:inline;fill:#000000;fill-opacity:1;stroke:#000000;stroke-width:2;stroke-dasharray:none;stroke-opacity:1"
       x="376.61142"
       y="508.84201"
       id="text6587-5-8"><tspan
         id="tspan6585-7-1"
         style="font-style:normal;font-variant:normal;font-weight:bold;font-stretch:normal;font-family:sans-serif;-inkscape-font-specification:'sans-serif Bold';fill:#000000;stroke:none;stroke-width:2;stroke-dasharray:none"
         x="376.61142"
         y="508.84201"
         sodipodi:role="line" /></text>
    <path
       id="path17"
       d="m 324.21826,525.92863 3.57145,141.12648 226.83667,24.24922 -37.33945,-144.73606 -193.06867,-20.63964"
       style="fill:#ffffff;fill-opacity:1;fill-rule:nonzero;stroke:#808080;stroke-width:2;stroke-dasharray:none;stroke-opacity:1" />
    <path
       id="path18"
       d="m 230.60749,515.92138 3.15177,141.08178 85.09201,9.09619 -4.41653,-141.21672 -83.82725,-8.96125"
       style="fill:#ffffff;fill-opacity:1;fill-rule:nonzero;stroke:#000000;stroke-width:2;stroke-dasharray:none;stroke-opacity:1" />
    <path
       id="path19"
       d="m 219.41464,483.73842 6.62687,170.94578 -45.19603,-3.33799 -7.50626,-172.53339 46.07542,4.9256"
       style="fill:#ffffff;fill-opacity:1;fill-rule:nonzero;stroke:#c7c7c7;stroke-width:2;stroke-dasharray:none;stroke-opacity:1" />
    <path
       id="path20"
       d="m 169.88124,591.56162 0.86552,58.7048 -140.063418,-14.97334 -4.434522,-190.23567 90.88033,9.71538 0.21311,18.05405 48.01057,5.13226 -0.13145,19.38437 -45.9203,-3.8939 2.0609,93.1738 48.51926,4.93825"
       style="fill:#ffffff;fill-opacity:1;fill-rule:nonzero;stroke:#808080;stroke-width:2;stroke-dasharray:none;stroke-opacity:1" />
    <text
       xml:space="preserve"
       style="font-size:15.5398px;text-align:center;text-anchor:middle;display:inline;fill:#000000;fill-opacity:1;stroke:#000000;stroke-width:2;stroke-dasharray:none;stroke-opacity:1"
       x="64.294594"
       y="603.30231"
       id="text6587-5-2-13-9"><tspan
         style="font-style:normal;font-variant:normal;font-weight:bold;font-stretch:normal;font-family:sans-serif;-inkscape-font-specification:'sans-serif Bold';text-align:center;text-anchor:middle;fill:#000000;stroke:none;stroke-width:2;stroke-dasharray:none"
         x="64.294594"
         y="603.30231"
         sodipodi:role="line"
         id="tspan213-7">Kitchen</tspan></text>
    <path
       id="path22"
       d="m 19.000569,214.79693 -0.05797,25.39142 26.021682,-0.58966 -3.036638,-26.00638 -22.927073,1.20462"
       style="fill:#ffffff;fill-opacity:1;fill-rule:nonzero;stroke:#000000;stroke-width:2;stroke-dasharray:none;stroke-opacity:1" />
    <path
       id="path23"
       d="m 576.99084,91.631702 3.47843,111.077738 89.04971,-1.02495 -2.47409,-110.806946 -90.05405,0.754158"
       style="fill:#ffffff;fill-opacity:1;fill-rule:nonzero;stroke:#000000;stroke-width:2;stroke-dasharray:none;stroke-opacity:1" />
    <text
       xml:space="preserve"
       style="font-size:15.5398px;display:inline;fill:#000000;fill-opacity:1;stroke:#000000;stroke-width:2;stroke-dasharray:none;stroke-opacity:1"
       x="685.80865"
       y="171.27811"
       id="text6587-5-6-3"><tspan
         id="tspan6585-7-0-6"
         style="font-style:normal;font-variant:normal;font-weight:bold;font-stretch:normal;font-family:sans-serif;-inkscape-font-specification:'sans-serif Bold';fill:#000000;stroke:none;stroke-width:2;stroke-dasharray:none"
         x="685.80865"
         y="171.27811"
         sodipodi:role="line">212</tspan></text>
    <text
       xml:space="preserve"
       style="font-size:15.5398px;display:inline;fill:#000000;fill-opacity:1;stroke:#000000;stroke-width:2;stroke-dasharray:none;stroke-opacity:1"
       x="607.46344"
       y="171.33121"
       id="text6587-5-6-9"><tspan
         id="tspan6585-7-0-8"
         style="font-style:normal;font-variant:normal;font-weight:bold;font-stretch:normal;font-family:sans-serif;-inkscape-font-specification:'sans-serif Bold';fill:#000000;stroke:none;stroke-width:2;stroke-dasharray:none"
         x="607.46344"
         y="171.33121"
         sodipodi:role="line">213</tspan></text>
    <text
       xml:space="preserve"
       style="font-size:15.5398px;display:inline;fill:#000000;fill-opacity:1;stroke:#000000;stroke-width:2;stroke-dasharray:none;stroke-opacity:1"
       x="745.64935"
       y="171.45508"
       id="text6587-5-6-0"><tspan
         id="tspan6585-7-0-97"
         style="font-style:normal;font-variant:normal;font-weight:bold;font-stretch:normal;font-family:sans-serif;-inkscape-font-specification:'sans-serif Bold';fill:#000000;stroke:none;stroke-width:2;stroke-dasharray:none"
         x="745.64935"
         y="171.45508"
         sodipodi:role="line">211</tspan></text>
    <path
       id="path28"
       d="m 833.92526,166.78692 -0.0163,36.292 9.60228,-1.88707 68.26932,-16.14252 -4.90736,-18.35605 -72.94792,0.0936"
       style="fill:#ffffff;fill-opacity:1;fill-rule:nonzero;stroke:#c7c7c7;stroke-width:2;stroke-dasharray:none;stroke-opacity:1" />
    <path
       id="path30"
       d="m 848.541,210.6373 15.75882,65.68697 140.72718,-37.43502 -16.73042,-65.714 L 848.541,210.6373"
       style="fill:#ffffff;fill-opacity:1;fill-rule:nonzero;stroke:#000000;stroke-width:2;stroke-dasharray:none;stroke-opacity:1" />
    <text
       xml:space="preserve"
       style="font-size:15.5398px;display:inline;fill:#000000;fill-opacity:1;stroke:#000000;stroke-width:2;stroke-dasharray:none;stroke-opacity:1"
       x="801.91107"
       y="426.65622"
       id="text6587-5-7-6-1-0"
       transform="rotate(-12.436214)"><tspan
         id="tspan6585-7-9-5-20-8"
         style="font-style:normal;font-variant:normal;font-weight:bold;font-stretch:normal;font-family:sans-serif;-inkscape-font-specification:'sans-serif Bold';fill:#000000;stroke:none;stroke-width:2;stroke-dasharray:none"
         x="801.91107"
         y="426.65622"
         sodipodi:role="line">208</tspan></text>
    <path
       id="path31"
       d="m 866.22683,285.3665 12.70506,50.24548 139.91881,-35.59268 -13.9379,-52.65304 -138.68597,38.00024"
       style="fill:#ffffff;fill-opacity:1;fill-rule:nonzero;stroke:#808080;stroke-width:2;stroke-dasharray:none;stroke-opacity:1" />
    <path
       id="path32"
       d="m 880.43427,345.26746 16.60802,64.43009 139.21681,-36.06003 -15.7507,-65.42465 -140.07413,37.05459"
       style="fill:#ffffff;fill-opacity:1;fill-rule:nonzero;stroke:#000000;stroke-width:2;stroke-dasharray:none;stroke-opacity:1" />
    <text
       xml:space="preserve"
       style="font-size:15.5398px;display:inline;fill:#000000;fill-opacity:1;stroke:#000000;stroke-width:2;stroke-dasharray:none;stroke-opacity:1"
       x="805.26453"
       y="561.23529"
       id="text6587-5-7-6-1-6"
       transform="rotate(-12.436214)"><tspan
         id="tspan6585-7-9-5-20-1"
         style="font-style:normal;font-variant:normal;font-weight:bold;font-stretch:normal;font-family:sans-serif;-inkscape-font-specification:'sans-serif Bold';fill:#000000;stroke:none;stroke-width:2;stroke-dasharray:none"
         x="805.26453"
         y="561.23529"
         sodipodi:role="line">207</tspan></text>
    <path
       id="path33"
       d="m 899.36121,418.47236 10.75357,44.8171 141.91932,-21.59114 -13.5624,-58.00378 -139.11049,34.77782"
       style="fill:#ffffff;fill-opacity:1;fill-rule:nonzero;stroke:#000000;stroke-width:2;stroke-dasharray:none;stroke-opacity:1" />
    <text
       xml:space="preserve"
       style="font-size:15.5398px;display:inline;fill:#000000;fill-opacity:1;stroke:#000000;stroke-width:2;stroke-dasharray:none;stroke-opacity:1"
       x="806.65631"
       y="631.23981"
       id="text6587-5-7-6-1"
       transform="rotate(-12.436214)"><tspan
         id="tspan6585-7-9-5-20"
         style="font-style:normal;font-variant:normal;font-weight:bold;font-stretch:normal;font-family:sans-serif;-inkscape-font-specification:'sans-serif Bold';fill:#000000;stroke:none;stroke-width:2;stroke-dasharray:none"
         x="806.65631"
         y="631.23981"
         sodipodi:role="line">206</tspan></text>
    <path
       id="path34"
       d="m 912.15608,471.92507 11.99469,49.53431 2.32706,81.11933 26.43072,-2.51982 -0.32659,-27.91706 127.64674,-21.02762 -11.5865,-47.20777 -99.22359,14.32551 -12.852,-53.50252 -44.41053,7.19564"
       style="fill:#ffffff;fill-opacity:1;fill-rule:nonzero;stroke:#c7c7c7;stroke-width:2;stroke-dasharray:none;stroke-opacity:1" />
    <path
       id="path35"
       d="m 966.84659,465.86993 10.17384,42.61875 88.69847,-10.90984 -11.276,-46.72528 -87.59631,15.01637"
       style="fill:#ffffff;fill-opacity:1;fill-rule:nonzero;stroke:#000000;stroke-width:2;stroke-dasharray:none;stroke-opacity:1" />
    <path
       id="path36"
       d="m 800.30096,512.73691 113.76577,12.6147 4.52354,139.31289 -115.88873,-12.85097 -2.40058,-139.07662"
       style="fill:#ffffff;fill-opacity:1;fill-rule:nonzero;stroke:#000000;stroke-width:2;stroke-dasharray:none;stroke-opacity:1" />
    <text
       xml:space="preserve"
       style="font-size:15.5398px;text-align:center;text-anchor:middle;display:inline;fill:#000000;fill-opacity:1;stroke:#000000;stroke-width:2;stroke-dasharray:none;stroke-opacity:1"
       x="775.46008"
       y="653.0155"
       id="text6587-5-7-29"
       transform="rotate(-7.7024697)"><tspan
         id="tspan6585-7-9-52"
         style="font-style:normal;font-variant:normal;font-weight:bold;font-stretch:normal;font-family:sans-serif;-inkscape-font-specification:'sans-serif Bold';text-align:center;text-anchor:middle;fill:#000000;stroke:none;stroke-width:2;stroke-dasharray:none"
         x="775.46008"
         y="653.0155"
         sodipodi:role="line">Common</tspan><tspan
         style="font-style:normal;font-variant:normal;font-weight:bold;font-stretch:normal;font-family:sans-serif;-inkscape-font-specification:'sans-serif Bold';text-align:center;text-anchor:middle;fill:#000000;stroke:none;stroke-width:2;stroke-dasharray:none"
         x="775.46008"
         y="672.44025"
         sodipodi:role="line"
         id="tspan212">room</tspan></text>
    <path
       id="path37"
       d="m 926.69012,614.31945 1.11046,51.3657 27.08404,4.99395 -1.55962,-61.04906 -26.63488,4.68941"
       style="fill:#ffffff;fill-opacity:1;fill-rule:nonzero;stroke:#808080;stroke-width:2;stroke-dasharray:none;stroke-opacity:1" />
    <path
       id="path38"
       d="m 963.00078,579.96429 1.04513,91.73046 57.46659,6.37233 -2.7351,-108.213 -55.77662,10.11021"
       style="fill:#ffffff;fill-opacity:1;fill-rule:nonzero;stroke:#000000;stroke-width:2;stroke-dasharray:none;stroke-opacity:1" />
    <text
       xml:space="preserve"
       style="font-size:15.5398px;text-align:center;text-anchor:middle;display:inline;fill:#000000;fill-opacity:1;stroke:#000000;stroke-width:2;stroke-dasharray:none;stroke-opacity:1"
       x="688.22357"
       y="-908.19135"
       id="text6587-5-7-29-0"
       transform="rotate(87.611326)"><tspan
         style="font-style:normal;font-variant:normal;font-weight:bold;font-stretch:normal;font-family:sans-serif;-inkscape-font-specification:'sans-serif Bold';text-align:center;text-anchor:middle;fill:#000000;stroke:none;stroke-width:2;stroke-dasharray:none"
         x="688.22357"
         y="-908.19135"
         sodipodi:role="line"
         id="tspan212-3">Kitchen</tspan></text>
    <path
       id="path39"
       d="m 1028.8859,569.12356 2.9067,110.084 80.0925,8.88111 -30.9461,-126.52599 -52.0531,7.56088"
       style="fill:#ffffff;fill-opacity:1;fill-rule:nonzero;stroke:#000000;stroke-width:2;stroke-dasharray:none;stroke-opacity:1" />
    <text
       xml:space="preserve"
       style="font-size:15.5398px;display:inline;fill:#000000;fill-opacity:1;stroke:#000000;stroke-width:2;stroke-dasharray:none;stroke-opacity:1"
       x="953.12384"
       y="735.61096"
       id="text6587-5-7-6-0"
       transform="rotate(-7.7024697)"><tspan
         id="tspan6585-7-9-5-2"
         style="font-style:normal;font-variant:normal;font-weight:bold;font-stretch:normal;font-family:sans-serif;-inkscape-font-specification:'sans-serif Bold';fill:#000000;stroke:none;stroke-width:2;stroke-dasharray:none"
         x="953.12384"
         y="735.61096"
         sodipodi:role="line">204</tspan></text>
    <text
       xml:space="preserve"
       style="font-size:15.5398px;display:inline;fill:#000000;fill-opacity:1;stroke:#000000;stroke-width:2;stroke-dasharray:none;stroke-opacity:1"
       x="885.7276"
       y="734.42651"
       id="text6587-5-7-6-0-0"
       transform="rotate(-7.7024697)"><tspan
         id="tspan6585-7-9-5-2-9"
         style="font-style:normal;font-variant:normal;font-weight:bold;font-stretch:normal;font-family:sans-serif;-inkscape-font-specification:'sans-serif Bold';fill:#000000;stroke:none;stroke-width:2;stroke-dasharray:none"
         x="885.7276"
         y="734.42651"
         sodipodi:role="line">203</tspan></text>
    <path
       id="path40"
       d="m 735.10182,505.50586 54.07,5.99609 3.60899,139.21068 -53.15547,-5.89396 -4.52352,-139.31281"
       style="fill:#ffffff;fill-opacity:1;fill-rule:nonzero;stroke:#000000;stroke-width:2;stroke-dasharray:none;stroke-opacity:1" />
    <text
       xml:space="preserve"
       style="font-size:15.5398px;display:inline;fill:#000000;fill-opacity:1;stroke:#000000;stroke-width:2;stroke-dasharray:none;stroke-opacity:1"
       x="669.47272"
       y="634.63702"
       id="text6587-5-7-2"
       transform="rotate(-7.7024697)"><tspan
         id="tspan6585-7-9-1"
         style="font-style:normal;font-variant:normal;font-weight:bold;font-stretch:normal;font-family:sans-serif;-inkscape-font-specification:'sans-serif Bold';fill:#000000;stroke:none;stroke-width:2;stroke-dasharray:none"
         x="669.47272"
         y="634.63702"
         sodipodi:role="line">Lib</tspan></text>
    <path
       id="path43"
       d="m 586.80791,447.41135 0.50028,35.91304 26.77359,3.36888 -1.03625,-35.98111 -26.23762,-3.30081"
       style="fill:#ffffff;fill-opacity:1;fill-rule:nonzero;stroke:#000000;stroke-width:2;stroke-dasharray:none;stroke-opacity:1" />
    <path
       id="path44"
       d="m 583.12294,350.07327 3.28242,89.9067 90.69086,13.10061 -3.00474,-102.19664 -90.96854,-0.81067"
       style="fill:#ffffff;fill-opacity:1;fill-rule:nonzero;stroke:#000000;stroke-width:2;stroke-dasharray:none;stroke-opacity:1" />
    <text
       xml:space="preserve"
       style="font-size:15.5398px;display:inline;fill:#000000;fill-opacity:1;stroke:#000000;stroke-width:2;stroke-dasharray:none;stroke-opacity:1"
       x="617.36615"
       y="433.46402"
       id="text6587-5-6-4"><tspan
         id="tspan6585-7-0-9"
         style="font-style:normal;font-variant:normal;font-weight:bold;font-stretch:normal;font-family:sans-serif;-inkscape-font-specification:'sans-serif Bold';fill:#000000;stroke:none;stroke-width:2;stroke-dasharray:none"
         x="617.36615"
         y="433.46402"
         sodipodi:role="line">201</tspan></text>
    <text
       xml:space="preserve"
       style="font-size:15.5398px;display:inline;fill:#000000;fill-opacity:1;stroke:#000000;stroke-width:2;stroke-dasharray:none;stroke-opacity:1"
       x="608.9325"
       y="265.96826"
       id="text6587-5-6-8"><tspan
         id="tspan6585-7-0-2"
         style="font-style:normal;font-variant:normal;font-weight:bold;font-stretch:normal;font-family:sans-serif;-inkscape-font-specification:'sans-serif Bold';fill:#000000;stroke:none;stroke-width:2;stroke-dasharray:none"
         x="608.9325"
         y="265.96826"
         sodipodi:role="line">214</tspan></text>
    <path
       id="path46"
       d="m 579.74259,209.70767 1.50238,23.86878 24.35676,1.21897 -1.33913,-26.0705 -24.52001,0.98275"
       style="fill:#ffffff;fill-opacity:1;fill-rule:nonzero;stroke:#000000;stroke-width:2;stroke-dasharray:none;stroke-opacity:1" />
    <path
       id="path47"
       style="fill:#ffffff;fill-opacity:1;fill-rule:nonzero;stroke:#c8c8c8;stroke-width:2;stroke-dasharray:none;stroke-opacity:1"
       sodipodi:type="inkscape:offset"
       inkscape:radius="0"
       inkscape:original="M 612.46094 209.63477 L 614.15039 234.26172 L 820.89453 235.33789 L 882.76172 488.47852 L 677.63477 468.58789 L 676.29688 460.76953 L 619.52344 454.47461 L 620.16797 483.42383 L 913.96094 516.00195 L 838.35156 212.05469 L 612.46094 209.63477 z "
       d="m 612.46094,209.63477 1.68945,24.62695 206.74414,1.07617 61.86719,253.14063 -205.12695,-19.89063 -1.33789,-7.81836 -56.77344,-6.29492 0.64453,28.94922 293.79297,32.57812 -75.60938,-303.94726 z" />
    <path
       id="path184"
       d="m 97.735164,193.00586 c 0,-0.19739 0.155955,-0.35851 0.347034,-0.35851 0.191048,0 0.346191,0.16112 0.346191,0.35851 0,0.1974 -0.155143,0.35852 -0.346191,0.35852 -0.191079,0 -0.347034,-0.16112 -0.347034,-0.35852 m 1.332558,0 c 0,-0.56181 -0.441741,-1.01903 -0.985524,-1.01903 -0.543814,0 -0.986368,0.45722 -0.986368,1.01903 0,0.56181 0.442554,1.01821 0.986368,1.01821 0.542971,8.5e-4 0.985524,-0.4564 0.985524,-1.01821"
       style="fill:#13100f;fill-opacity:1;fill-rule:nonzero;stroke:#000000;stroke-width:2;stroke-dasharray:none;stroke-opacity:1" />
    <path
       id="path185"
       d="m 97.735164,193.00586 c 0,-0.19739 0.155955,-0.35851 0.347034,-0.35851 0.191048,0 0.346191,0.16112 0.346191,0.35851 0,0.1974 -0.155143,0.35852 -0.346191,0.35852 -0.191079,0 -0.347034,-0.16112 -0.347034,-0.35852 z m 1.332558,0 c 0,-0.56181 -0.441741,-1.01903 -0.985524,-1.01903 -0.543814,0 -0.986368,0.45722 -0.986368,1.01903 0,0.56181 0.442554,1.01821 0.986368,1.01821 0.542971,8.5e-4 0.985524,-0.4564 0.985524,-1.01821 z"
       style="fill:none;stroke:#000000;stroke-width:2;stroke-linecap:butt;stroke-linejoin:miter;stroke-miterlimit:10;stroke-dasharray:none;stroke-opacity:1" />
    <path
       id="path186"
       d="m 97.300768,199.061 c -0.530727,0 -0.961846,-0.44709 -0.961846,-0.99541 v -10.12115 c 0,-0.54746 0.431119,-0.99372 0.961846,-0.99372 h 1.561185 c 0.962678,0 0.962678,0.2708 0.962678,0.99372 v 10.12115 c 0,0.72378 0,0.99541 -0.962678,0.99541 z m -7.522598,-0.87647 c -3.26526,0 -5.920582,-2.32319 -5.920582,-5.17867 0,-2.85547 2.655322,-5.17867 5.920582,-5.17867 3.437549,0 5.921408,0 5.921408,5.17867 0,5.17867 -2.483859,5.17867 -5.921408,5.17867 m 10.6858,-0.11894 v -10.12115 c 0,-0.73728 0,-1.65337 -1.601185,-1.65337 h -1.562017 c -0.882651,0 -1.60119,0.74148 -1.60119,1.65337 v 1.49734 c -1.096576,-2.27173 -3.457961,-2.27509 -5.921408,-2.27509 -3.617996,0 -6.560739,2.61928 -6.560739,5.83917 0,3.21991 2.942743,5.83919 6.560739,5.83919 2.462625,0 4.824832,-0.003 5.921408,-2.27511 v 1.49565 c 0,0.91357 0.718539,1.65593 1.60119,1.65593 h 1.562017 c 1.601185,0 1.601185,-0.91781 1.601185,-1.65593"
       style="fill:#13100f;fill-opacity:1;fill-rule:nonzero;stroke:none;stroke-width:2;stroke-dasharray:none;stroke-opacity:1" />
    <path
       id="path187"
       d="m 97.300768,199.061 c -0.530727,0 -0.961846,-0.44709 -0.961846,-0.99541 v -10.12115 c 0,-0.54746 0.431119,-0.99372 0.961846,-0.99372 h 1.561185 c 0.962678,0 0.962678,0.2708 0.962678,0.99372 v 10.12115 c 0,0.72378 0,0.99541 -0.962678,0.99541 z m -7.522598,-0.87647 c -3.26526,0 -5.920582,-2.32319 -5.920582,-5.17867 0,-2.85547 2.655322,-5.17867 5.920582,-5.17867 3.437549,0 5.921408,0 5.921408,5.17867 0,5.17867 -2.483859,5.17867 -5.921408,5.17867 z m 10.6858,-0.11894 v -10.12115 c 0,-0.73728 0,-1.65337 -1.601185,-1.65337 h -1.562017 c -0.882651,0 -1.60119,0.74148 -1.60119,1.65337 v 1.49734 c -1.096576,-2.27173 -3.457961,-2.27509 -5.921408,-2.27509 -3.617996,0 -6.560739,2.61928 -6.560739,5.83917 0,3.21991 2.942743,5.83919 6.560739,5.83919 2.462625,0 4.824832,-0.003 5.921408,-2.27511 v 1.49565 c 0,0.91357 0.718539,1.65593 1.60119,1.65593 h 1.562017 c 1.601185,0 1.601185,-0.91781 1.601185,-1.65593 z"
       style="fill:none;stroke:none;stroke-width:2;stroke-linecap:butt;stroke-linejoin:miter;stroke-miterlimit:10;stroke-dasharray:none;stroke-opacity:1" />
    <path
       id="path188"
       d="m 97.324447,150.77681 c 0,-0.19738 0.155954,-0.35849 0.347024,-0.35849 0.191068,0 0.346212,0.16111 0.346212,0.35849 0,0.1974 -0.155144,0.35852 -0.346212,0.35852 -0.19107,0 -0.347024,-0.16112 -0.347024,-0.35852 m 1.332558,0 c 0,-0.56179 -0.44173,-1.01901 -0.985534,-1.01901 -0.543794,0 -0.986347,0.45722 -0.986347,1.01901 0,0.56183 0.442553,1.01821 0.986347,1.01821 0.542992,8.5e-4 0.985534,-0.45638 0.985534,-1.01821"
       style="fill:#13100f;fill-opacity:1;fill-rule:nonzero;stroke:#000000;stroke-width:2;stroke-dasharray:none;stroke-opacity:1" />
    <path
       id="path189"
       d="m 97.324447,150.77681 c 0,-0.19738 0.155954,-0.35849 0.347024,-0.35849 0.191068,0 0.346212,0.16111 0.346212,0.35849 0,0.1974 -0.155144,0.35852 -0.346212,0.35852 -0.19107,0 -0.347024,-0.16112 -0.347024,-0.35852 z m 1.332558,0 c 0,-0.56179 -0.44173,-1.01901 -0.985534,-1.01901 -0.543794,0 -0.986347,0.45722 -0.986347,1.01901 0,0.56183 0.442553,1.01821 0.986347,1.01821 0.542992,8.5e-4 0.985534,-0.45638 0.985534,-1.01821 z"
       style="fill:none;stroke:#000000;stroke-width:2;stroke-linecap:butt;stroke-linejoin:miter;stroke-miterlimit:10;stroke-dasharray:none;stroke-opacity:1" />
    <path
       id="path190"
       d="m 96.890071,156.83197 c -0.530747,0 -0.961866,-0.44626 -0.961866,-0.99543 v -10.12113 c 0,-0.54747 0.431119,-0.99372 0.961866,-0.99372 h 1.561186 c 0.962667,0 0.962667,0.27079 0.962667,0.99372 v 10.12113 c 0,0.72379 0,0.99543 -0.962667,0.99543 z m -7.522608,-0.87648 c -3.265261,0 -5.920589,-2.32319 -5.920589,-5.17868 0,-2.85546 2.655328,-5.17866 5.920589,-5.17866 3.437549,0 5.921408,0 5.921408,5.17866 0,5.17868 -2.483859,5.17868 -5.921408,5.17868 m 10.685807,-0.11895 v -10.12113 c 0,-0.73727 0,-1.65339 -1.601202,-1.65339 h -1.561997 c -0.882662,0 -1.6012,0.7415 -1.6012,1.65339 v 1.49735 c -1.096586,-2.27175 -3.45797,-2.27512 -5.921408,-2.27512 -3.618002,0 -6.560735,2.61928 -6.560735,5.83917 0,3.21992 2.943543,5.8392 6.560735,5.8392 2.462626,0 4.824822,-0.003 5.921408,-2.27511 v 1.49564 c 0,0.91359 0.718538,1.65593 1.6012,1.65593 h 1.561997 c 1.601202,0 1.601202,-0.91779 1.601202,-1.65593"
       style="fill:#13100f;fill-opacity:1;fill-rule:nonzero;stroke:none;stroke-width:2;stroke-dasharray:none;stroke-opacity:1" />
    <path
       id="path191"
       d="m 96.890071,156.83197 c -0.530747,0 -0.961866,-0.44626 -0.961866,-0.99543 v -10.12113 c 0,-0.54747 0.431119,-0.99372 0.961866,-0.99372 h 1.561186 c 0.962667,0 0.962667,0.27079 0.962667,0.99372 v 10.12113 c 0,0.72379 0,0.99543 -0.962667,0.99543 z m -7.522608,-0.87648 c -3.265261,0 -5.920589,-2.32319 -5.920589,-5.17868 0,-2.85546 2.655328,-5.17866 5.920589,-5.17866 3.437549,0 5.921408,0 5.921408,5.17866 0,5.17868 -2.483859,5.17868 -5.921408,5.17868 z m 10.685807,-0.11895 v -10.12113 c 0,-0.73727 0,-1.65339 -1.601202,-1.65339 h -1.561997 c -0.882662,0 -1.6012,0.7415 -1.6012,1.65339 v 1.49735 c -1.096586,-2.27175 -3.45797,-2.27512 -5.921408,-2.27512 -3.618002,0 -6.560735,2.61928 -6.560735,5.83917 0,3.21992 2.943543,5.8392 6.560735,5.8392 2.462626,0 4.824822,-0.003 5.921408,-2.27511 v 1.49564 c 0,0.91359 0.718538,1.65593 1.6012,1.65593 h 1.561997 c 1.601202,0 1.601202,-0.91779 1.601202,-1.65593 z"
       style="fill:none;stroke:none;stroke-width:2;stroke-linecap:butt;stroke-linejoin:miter;stroke-miterlimit:10;stroke-dasharray:none;stroke-opacity:1" />
    <path
       id="path192"
       d="m 97.095008,109.58958 c 0,-0.19738 0.155966,-0.3585 0.347024,-0.3585 0.191059,0 0.346212,0.16112 0.346212,0.3585 0,0.1974 -0.155153,0.35851 -0.346212,0.35851 -0.191058,0 -0.347024,-0.16111 -0.347024,-0.35851 m 1.332569,0 c 0,-0.5618 -0.441751,-1.01902 -0.985545,-1.01902 -0.543804,0 -0.986346,0.45722 -0.986346,1.01902 0,0.56182 0.442542,1.0182 0.986346,1.0182 0.542982,9.1e-4 0.985545,-0.45638 0.985545,-1.0182"
       style="fill:#13100f;fill-opacity:1;fill-rule:nonzero;stroke:#000000;stroke-width:2;stroke-dasharray:none;stroke-opacity:1" />
    <path
       id="path193"
       d="m 97.095008,109.58958 c 0,-0.19738 0.155966,-0.3585 0.347024,-0.3585 0.191059,0 0.346212,0.16112 0.346212,0.3585 0,0.1974 -0.155153,0.35851 -0.346212,0.35851 -0.191058,0 -0.347024,-0.16111 -0.347024,-0.35851 z m 1.332569,0 c 0,-0.5618 -0.441751,-1.01902 -0.985545,-1.01902 -0.543804,0 -0.986346,0.45722 -0.986346,1.01902 0,0.56182 0.442542,1.0182 0.986346,1.0182 0.542982,9.1e-4 0.985545,-0.45638 0.985545,-1.0182 z"
       style="fill:none;stroke:#000000;stroke-width:2;stroke-linecap:butt;stroke-linejoin:miter;stroke-miterlimit:10;stroke-dasharray:none;stroke-opacity:1" />
    <path
       id="path194"
       d="m 96.660632,115.64473 c -0.530746,0 -0.961865,-0.4471 -0.961865,-0.99543 v -10.12113 c 0,-0.54747 0.431119,-0.99371 0.961865,-0.99371 h 1.561175 c 0.962669,0 0.962669,0.27078 0.962669,0.99371 v 10.12113 c 0,0.7238 0,0.99543 -0.962669,0.99543 z m -7.522607,-0.87648 c -3.265266,0 -5.920594,-2.32319 -5.920594,-5.17867 0,-2.85546 2.655328,-5.17866 5.920594,-5.17866 3.437549,0 5.921409,0 5.921409,5.17866 0,5.17867 -2.48386,5.17867 -5.921409,5.17867 m 10.685791,-0.11895 v -10.12113 c 0,-0.73727 0,-1.65338 -1.601186,-1.65338 h -1.561998 c -0.882671,0 -1.601198,0.74149 -1.601198,1.65338 v 1.49734 c -1.096597,-2.27173 -3.457972,-2.2751 -5.921409,-2.2751 -3.618007,0 -6.560738,2.61928 -6.560738,5.83917 0,3.2199 2.94355,5.83919 6.560738,5.83919 2.462615,0 4.824812,-0.002 5.921409,-2.2751 v 1.49563 c 0,0.9136 0.718527,1.65594 1.601198,1.65594 h 1.561998 c 1.601186,0 1.601186,-0.9178 1.601186,-1.65594"
       style="fill:#13100f;fill-opacity:1;fill-rule:nonzero;stroke:none;stroke-width:2;stroke-dasharray:none;stroke-opacity:1" />
    <path
       id="path195"
       d="m 96.660632,115.64473 c -0.530746,0 -0.961865,-0.4471 -0.961865,-0.99543 v -10.12113 c 0,-0.54747 0.431119,-0.99371 0.961865,-0.99371 h 1.561175 c 0.962669,0 0.962669,0.27078 0.962669,0.99371 v 10.12113 c 0,0.7238 0,0.99543 -0.962669,0.99543 z m -7.522607,-0.87648 c -3.265266,0 -5.920594,-2.32319 -5.920594,-5.17867 0,-2.85546 2.655328,-5.17866 5.920594,-5.17866 3.437549,0 5.921409,0 5.921409,5.17866 0,5.17867 -2.48386,5.17867 -5.921409,5.17867 z m 10.685791,-0.11895 v -10.12113 c 0,-0.73727 0,-1.65338 -1.601186,-1.65338 h -1.561998 c -0.882671,0 -1.601198,0.74149 -1.601198,1.65338 v 1.49734 c -1.096597,-2.27173 -3.457972,-2.2751 -5.921409,-2.2751 -3.618007,0 -6.560738,2.61928 -6.560738,5.83917 0,3.2199 2.94355,5.83919 6.560738,5.83919 2.462615,0 4.824812,-0.002 5.921409,-2.2751 v 1.49563 c 0,0.9136 0.718527,1.65594 1.601198,1.65594 h 1.561998 c 1.601186,0 1.601186,-0.9178 1.601186,-1.65594 z"
       style="fill:none;stroke:none;stroke-width:2;stroke-linecap:butt;stroke-linejoin:miter;stroke-miterlimit:10;stroke-dasharray:none;stroke-opacity:1" />
    <path
       id="path196"
       d="m 822.0449,189.99864 c 0,-0.35346 -0.27762,-0.63856 -0.62056,-0.63856 h -3.83765 v -3.75474 c 0,-0.0371 -0.008,-0.0734 -0.0167,-0.10797 0.008,-0.0346 0.0167,-0.0708 0.0167,-0.10799 0,-0.35261 -0.27761,-0.63942 -0.62051,-0.63942 h -3.84586 v -3.75472 c 0,-0.0371 -0.008,-0.0734 -0.008,-0.10798 0.008,-0.0354 0.008,-0.0717 0.008,-0.10882 0,-0.35261 -0.27762,-0.63943 -0.62055,-0.63943 h -3.83764 v -3.75472 c 0,-0.0371 -0.008,-0.0717 -0.0167,-0.10796 0.008,-0.0355 0.0167,-0.0708 0.0167,-0.108 0,-0.35345 -0.27756,-0.63857 -0.62051,-0.63857 h -3.6662 V 171.484 c 0,-0.0371 -0.008,-0.0726 -0.0162,-0.10712 0.008,-0.0355 0.0162,-0.0717 0.0162,-0.10884 0,-0.35261 -0.27761,-0.63942 -0.62055,-0.63942 l -4.28671,-4.5e-4 c -0.34294,0 -0.62056,0.28765 -0.62056,0.64028 0,0.35345 0.27762,0.64026 0.62056,0.64026 h 3.66619 v 4.00358 c 0,0.0447 0,0.0868 0.008,0.12906 -0.008,0.0413 -0.008,0.0826 -0.008,0.12738 0,0.35346 0.27758,0.64026 0.62052,0.64026 h 3.66614 v 4.00443 c 0,0.35262 0.27767,0.63943 0.62061,0.63943 0.0653,0 0.1306,-0.0127 0.1877,-0.0337 h 3.64989 v 4.00357 c 0,0.35345 0.27766,0.64026 0.62056,0.64026 0.0654,0 0.13065,-0.0143 0.1878,-0.0329 h 3.65802 v 4.00357 c 0,0.35345 0.27762,0.64028 0.62059,0.64028 0.0654,0 0.13061,-0.0144 0.18776,-0.0354 h 3.64984 v 4.00611 c 0,0.35344 0.27756,0.63857 0.62056,0.63857 0.34294,0 0.62056,-0.28513 0.62056,-0.63857 v -4.42874 c 0,-0.0363 0,-0.0726 -0.008,-0.10883 0.008,-0.0354 0.008,-0.07 0.008,-0.10797"
       style="fill:#13100f;fill-opacity:1;fill-rule:nonzero;stroke:none;stroke-width:2;stroke-dasharray:none;stroke-opacity:1" />
    <path
       id="path198"
       d="m 716.66482,539.39836 c 0,-0.3535 -0.26945,-0.63947 -0.61239,-0.63947 h -3.84576 v -3.75388 c 0,-0.0373 -0.008,-0.0733 -0.008,-0.10794 0,-0.0355 0.008,-0.0708 0.008,-0.10799 0,-0.35345 -0.27771,-0.63942 -0.62061,-0.63942 h -3.84586 v -3.75472 c 0,-0.0373 0,-0.0733 -0.008,-0.10886 0.008,-0.0345 0.008,-0.0708 0.008,-0.10795 0,-0.35349 -0.27757,-0.63942 -0.61238,-0.63942 h -3.84578 v -3.75477 c 0,-0.0373 -0.008,-0.0725 -0.008,-0.10793 0,-0.0355 0.008,-0.0708 0.008,-0.10796 0,-0.35348 -0.27761,-0.63946 -0.62055,-0.63946 h -3.66621 v -4.04492 c 0,-0.0373 -0.008,-0.0725 -0.008,-0.10791 0,-0.0345 0.008,-0.0708 0.008,-0.10803 0,-0.35344 -0.27755,-0.63937 -0.62049,-0.63937 h -4.28675 c -0.34295,0 -0.62052,0.28678 -0.62052,0.64023 0,0.35349 0.27757,0.63941 0.62052,0.63941 h 3.66619 v 4.00446 c 0,0.0441 0.008,0.0869 0.0163,0.1282 -0.008,0.0418 -0.0163,0.0836 -0.0163,0.12825 0,0.35344 0.27762,0.63937 0.62056,0.63937 h 3.66619 v 4.0053 c 0,0.35261 0.27757,0.63942 0.62051,0.63942 0.0654,0 0.1306,-0.0135 0.18784,-0.0345 h 3.65798 v 4.00445 c 0,0.35344 0.27761,0.63943 0.62051,0.63943 0.0654,0 0.12248,-0.0135 0.18784,-0.0332 h 3.64984 v 4.00441 c 0,0.35344 0.27757,0.63942 0.62056,0.63942 0.0654,0 0.13065,-0.0135 0.19593,-0.0345 h 3.64986 v 4.00529 c 0,0.35346 0.27769,0.63944 0.62058,0.63944 0.34294,0 0.61239,-0.28598 0.61239,-0.63944 l 0.008,-4.42787 c 0,-0.0373 -0.008,-0.0733 -0.0163,-0.1088 0.008,-0.0355 0.008,-0.0708 0.008,-0.10804"
       style="fill:#13100f;fill-opacity:1;fill-rule:nonzero;stroke:none;stroke-width:2;stroke-dasharray:none;stroke-opacity:1" />
    <path
       id="path199"
       d="m 158.96602,550.91596 c 0,-0.35344 -0.2768,-0.63942 -0.61893,-0.63942 h -3.84418 v -3.75386 c 0,-0.0373 -0.005,-0.0733 -0.0105,-0.10795 0.006,-0.0355 0.0105,-0.0709 0.0105,-0.10805 0,-0.3534 -0.2768,-0.63937 -0.61892,-0.63937 h -3.84336 v -3.75472 c 0,-0.0373 -0.005,-0.0733 -0.0106,-0.10883 0.006,-0.0345 0.0106,-0.0708 0.0106,-0.108 0,-0.35346 -0.2768,-0.63939 -0.61893,-0.63939 h -3.84336 v -3.75475 c 0,-0.0373 -0.004,-0.0726 -0.0105,-0.10796 0.006,-0.0355 0.0105,-0.0708 0.0105,-0.10794 0,-0.3535 -0.27679,-0.63946 -0.61892,-0.63946 h -3.66698 v -4.04407 c 0,-0.0382 -0.005,-0.0734 -0.0106,-0.10881 0.006,-0.0345 0.0106,-0.0708 0.0106,-0.10804 0,-0.35344 -0.27681,-0.63941 -0.61893,-0.63941 h -4.28673 c -0.34213,0 -0.61892,0.28682 -0.61892,0.64027 0,0.35343 0.27679,0.63946 0.61892,0.63946 h 3.66699 v 4.00441 c 0,0.0441 0.004,0.0869 0.0123,0.12824 -0.008,0.0413 -0.0123,0.0835 -0.0123,0.12821 0,0.35344 0.2768,0.63942 0.61892,0.63942 h 3.66699 v 4.00527 c 0,0.35263 0.27681,0.63945 0.61891,0.63945 0.067,0 0.13067,-0.0135 0.19109,-0.0345 h 3.65229 v 4.00445 c 0,0.3534 0.2768,0.63942 0.61893,0.63942 0.0662,0 0.129,-0.0135 0.18862,-0.0332 h 3.65474 v 4.00439 c 0,0.35344 0.27678,0.63942 0.61891,0.63942 0.0686,0 0.13229,-0.0135 0.19352,-0.0345 h 3.65064 v 4.00525 c 0,0.35345 0.27682,0.63947 0.61894,0.63947 0.34213,0 0.61892,-0.28602 0.61892,-0.63947 l 0.002,-4.42784 c 0,-0.0373 -0.005,-0.0734 -0.0106,-0.10884 0.006,-0.0356 0.0102,-0.0708 0.0102,-0.108"
       style="fill:#13100f;fill-opacity:1;fill-rule:nonzero;stroke:none;stroke-width:2;stroke-dasharray:none;stroke-opacity:1" />
    <path
       id="path200"
       d="m 32.976945,218.89583 -1.054943,-1.91574 h 1.118633 l 0.383765,0.66051 0.383764,-0.66051 h 1.119449 l -1.054944,1.91574 c -0.09634,0.16533 -0.256388,0.26404 -0.416426,0.26404 -0.159222,0 -0.382947,-0.0987 -0.479298,-0.26404 z m -6.106752,0.26404 h -1.119449 l 1.054943,-1.91574 c 0.09634,-0.16534 0.255571,-0.26404 0.415609,-0.26404 0.160038,0 0.320076,0.0987 0.416425,0.26404 l 1.054944,1.91574 h -1.119449 l -0.383765,-0.6605 z m 9.016014,16.64866 h -5.083655 v -14.99697 h 5.083655 z m -6.043065,0 h -5.083654 v -14.99697 h 5.083654 z m 6.52318,-15.98814 H 24.28019 c -0.255572,0 -0.479297,0.23197 -0.479297,0.49601 v 15.98816 c 0,0.26403 0.223725,0.49516 0.479297,0.49516 h 12.086132 c 0.25557,0 0.479297,-0.23113 0.479297,-0.49516 V 220.3164 c 0,-0.29779 -0.223727,-0.49601 -0.479297,-0.49601"
       style="fill:#13100f;fill-opacity:1;fill-rule:nonzero;stroke:none;stroke-width:2;stroke-dasharray:none;stroke-opacity:1" />
    <path
       id="path205"
       d="m 590.61491,473.86043 c 0,0.25729 -0.20424,0.46649 -0.4492,0.46649 -0.25309,0 -0.45714,-0.2092 -0.45714,-0.46649 0,-0.25728 0.20405,-0.4665 0.45714,-0.4665 0.24496,0 0.4492,0.20922 0.4492,0.4665 m -1.7311,0 c 0,0.73136 0.57153,1.32523 1.2819,1.32523 0.70229,0 1.282,-0.59387 1.282,-1.32523 0,-0.73138 -0.57971,-1.32524 -1.282,-1.32524 -0.71037,0 -1.2819,0.59386 -1.2819,1.32524"
       style="fill:#13100f;fill-opacity:1;fill-rule:nonzero;stroke:#000000;stroke-width:2;stroke-dasharray:none;stroke-opacity:1" />
    <path
       id="path206"
       d="m 590.61491,473.86043 c 0,0.25729 -0.20424,0.46649 -0.4492,0.46649 -0.25309,0 -0.45714,-0.2092 -0.45714,-0.46649 0,-0.25728 0.20405,-0.4665 0.45714,-0.4665 0.24496,0 0.4492,0.20922 0.4492,0.4665 z m -1.7311,0 c 0,0.73136 0.57153,1.32523 1.2819,1.32523 0.70229,0 1.282,-0.59387 1.282,-1.32523 0,-0.73138 -0.57971,-1.32524 -1.282,-1.32524 -0.71037,0 -1.2819,0.59386 -1.2819,1.32524 z"
       style="fill:none;stroke:none;stroke-width:2;stroke-linecap:butt;stroke-linejoin:miter;stroke-miterlimit:10;stroke-dasharray:none;stroke-opacity:1" />
    <path
       id="path207"
       d="m 591.17823,465.98319 c 0.68592,0 1.24927,0.58121 1.24927,1.29488 v 13.16809 c 0,0.71199 -0.56335,1.29236 -1.24927,1.29236 h -2.03312 c -1.24929,0 -1.24929,-0.3526 -1.24929,-1.29236 v -13.16809 c 0,-0.94228 0,-1.29488 1.24929,-1.29488 z m 9.7819,1.1405 c 4.25414,0 7.70798,3.0225 7.70798,6.73674 0,3.71507 -3.45384,6.73758 -7.70798,6.73758 -4.46633,0 -7.69971,0 -7.69971,-6.73758 0,-6.73674 3.23338,-6.73674 7.69971,-6.73674 m -13.89716,0.15438 v 13.16809 c 0,0.95831 0,2.15112 2.08214,2.15112 h 2.03312 c 1.15131,0 2.08219,-0.9659 2.08219,-2.15112 v -1.94863 c 1.42886,2.95587 4.49894,2.96008 7.69971,2.96008 4.71133,0 8.54083,-3.40802 8.54083,-7.59718 0,-4.18833 -3.8295,-7.59634 -8.54083,-7.59634 -3.20077,0 -6.27085,0.004 -7.69971,2.95924 v -1.94526 c 0,-1.18775 -0.93088,-2.15449 -2.08219,-2.15449 h -2.03312 c -2.08214,0 -2.08214,1.1945 -2.08214,2.15449"
       style="fill:#13100f;fill-opacity:1;fill-rule:nonzero;stroke:none;stroke-width:2;stroke-dasharray:none;stroke-opacity:1" />
    <path
       id="path205-8"
       d="m 591.03507,457.87625 c 0,0.25729 -0.20414,0.46651 -0.44908,0.46651 -0.25314,0 -0.45724,-0.20922 -0.45724,-0.46651 0,-0.25729 0.2041,-0.46648 0.45724,-0.46648 0.24494,0 0.44908,0.20919 0.44908,0.46648 m -1.73099,0 c 0,0.73137 0.57148,1.32527 1.28191,1.32527 0.70219,0 1.28194,-0.5939 1.28194,-1.32527 0,-0.73136 -0.57975,-1.32523 -1.28194,-1.32523 -0.71043,0 -1.28191,0.59387 -1.28191,1.32523"
       style="fill:#13100f;fill-opacity:1;fill-rule:nonzero;stroke:#000000;stroke-width:2;stroke-dasharray:none;stroke-opacity:1" />
    <path
       id="path206-2"
       d="m 591.03507,457.87625 c 0,0.25729 -0.20414,0.46651 -0.44908,0.46651 -0.25314,0 -0.45724,-0.20922 -0.45724,-0.46651 0,-0.25729 0.2041,-0.46648 0.45724,-0.46648 0.24494,0 0.44908,0.20919 0.44908,0.46648 z m -1.73099,0 c 0,0.73137 0.57148,1.32527 1.28191,1.32527 0.70219,0 1.28194,-0.5939 1.28194,-1.32527 0,-0.73136 -0.57975,-1.32523 -1.28194,-1.32523 -0.71043,0 -1.28191,0.59387 -1.28191,1.32523 z"
       style="fill:none;stroke:none;stroke-width:2;stroke-linecap:butt;stroke-linejoin:miter;stroke-miterlimit:10;stroke-dasharray:none;stroke-opacity:1" />
    <path
       id="path207-4"
       d="m 591.59844,449.99901 c 0.68595,0 1.2493,0.58123 1.2493,1.29488 v 13.16812 c 0,0.71196 -0.56335,1.29233 -1.2493,1.29233 h -2.03306 c -1.24933,0 -1.24933,-0.35261 -1.24933,-1.29233 v -13.16812 c 0,-0.94227 0,-1.29488 1.24933,-1.29488 z m 9.78196,1.14051 c 4.25405,0 7.70791,3.02252 7.70791,6.73673 0,3.71509 -3.45386,6.73761 -7.70791,6.73761 -4.46637,0 -7.69982,0 -7.69982,-6.73761 0,-6.73673 3.23345,-6.73673 7.69982,-6.73673 m -13.89717,0.15437 v 13.16812 c 0,0.95828 0,2.15109 2.08215,2.15109 h 2.03306 c 1.15131,0 2.08214,-0.96589 2.08214,-2.15109 v -1.94866 c 1.42892,2.95587 4.49899,2.96009 7.69982,2.96009 4.71129,0 8.54079,-3.408 8.54079,-7.59719 0,-4.1883 -3.8295,-7.59631 -8.54079,-7.59631 -3.20083,0 -6.2709,0.004 -7.69982,2.95922 v -1.94527 c 0,-1.18774 -0.93083,-2.15447 -2.08214,-2.15447 h -2.03306 c -2.08215,0 -2.08215,1.19449 -2.08215,2.15447"
       style="fill:#13100f;fill-opacity:1;fill-rule:nonzero;stroke:none;stroke-width:2;stroke-dasharray:none;stroke-opacity:1" />
    <path
       id="path209"
       d="m 595.32992,213.76608 -1.06147,-1.91574 h 1.11858 l 0.38379,0.66051 0.38377,-0.66051 h 1.11861 l -1.05327,1.91574 c -0.098,0.16535 -0.25309,0.26404 -0.4164,0.26404 -0.1552,0 -0.38378,-0.0987 -0.47361,-0.26404 z m -6.10758,0.26404 h -1.11863 l 1.05331,-1.91574 c 0.0979,-0.16534 0.25309,-0.26404 0.41644,-0.26404 0.15514,0 0.31845,0.0987 0.4164,0.26404 l 1.05331,1.91574 h -1.11863 l -0.38378,-0.66049 z m 9.01439,16.64867 h -5.08693 v -14.99695 h 5.08693 z m -6.04226,0 h -5.08692 v -14.99695 h 5.08692 z m 6.52399,-15.98815 h -12.09264 c -0.25317,0 -0.4736,0.23197 -0.4736,0.49602 v 15.98815 c 0,0.26403 0.22043,0.49517 0.4736,0.49517 h 12.09264 c 0.25309,0 0.47359,-0.23114 0.47359,-0.49517 v -15.98815 c 0,-0.29778 -0.2205,-0.49602 -0.47359,-0.49602"
       style="fill:#13100f;fill-opacity:1;fill-rule:nonzero;stroke:none;stroke-width:2;stroke-dasharray:none;stroke-opacity:1" />
    <path
       id="path196-1"
       d="m 260.50853,189.6817 c 0,-0.35346 -0.27762,-0.63856 -0.62056,-0.63856 h -3.83765 v -3.75474 c 0,-0.0371 -0.008,-0.0734 -0.0167,-0.10797 0.008,-0.0346 0.0167,-0.0708 0.0167,-0.10799 0,-0.35261 -0.27761,-0.63942 -0.62051,-0.63942 h -3.84586 v -3.75472 c 0,-0.0371 -0.008,-0.0734 -0.008,-0.10798 0.008,-0.0354 0.008,-0.0717 0.008,-0.10882 0,-0.35261 -0.27762,-0.63943 -0.62055,-0.63943 h -3.83764 v -3.75472 c 0,-0.0371 -0.008,-0.0717 -0.0167,-0.10796 0.008,-0.0355 0.0167,-0.0708 0.0167,-0.108 0,-0.35345 -0.27756,-0.63857 -0.62051,-0.63857 h -3.6662 v -4.04576 c 0,-0.0371 -0.008,-0.0726 -0.0162,-0.10712 0.008,-0.0355 0.0162,-0.0717 0.0162,-0.10884 0,-0.35261 -0.27761,-0.63942 -0.62055,-0.63942 l -4.28671,-4.5e-4 c -0.34294,0 -0.62056,0.28765 -0.62056,0.64028 0,0.35345 0.27762,0.64026 0.62056,0.64026 h 3.66619 v 4.00358 c 0,0.0447 0,0.0868 0.008,0.12906 -0.008,0.0413 -0.008,0.0826 -0.008,0.12738 0,0.35346 0.27758,0.64026 0.62052,0.64026 h 3.66614 v 4.00443 c 0,0.35262 0.27767,0.63943 0.62061,0.63943 0.0653,0 0.1306,-0.0127 0.1877,-0.0337 h 3.64989 v 4.00357 c 0,0.35345 0.27766,0.64026 0.62056,0.64026 0.0654,0 0.13065,-0.0143 0.1878,-0.0329 h 3.65802 v 4.00357 c 0,0.35345 0.27762,0.64028 0.62059,0.64028 0.0654,0 0.13061,-0.0144 0.18776,-0.0354 h 3.64984 v 4.00611 c 0,0.35344 0.27756,0.63857 0.62056,0.63857 0.34294,0 0.62056,-0.28513 0.62056,-0.63857 v -4.42874 c 0,-0.0363 0,-0.0726 -0.008,-0.10883 0.008,-0.0354 0.008,-0.07 0.008,-0.10797"
       style="fill:#13100f;fill-opacity:1;fill-rule:nonzero;stroke:none;stroke-width:2;stroke-dasharray:none;stroke-opacity:1" />
    <text
       xml:space="preserve"
       style="font-size:25.7948px;display:inline;fill:#000000;fill-opacity:1;stroke:#000000;stroke-width:2;stroke-dasharray:none;stroke-opacity:1"
       x="163.09879"
       y="369.99603"
       id="text6587"><tspan
         sodipodi:role="line"
         id="tspan6585"
         style="font-style:normal;font-variant:normal;font-weight:bold;font-stretch:normal;font-family:sans-serif;-inkscape-font-specification:'sans-serif Bold';fill:#000000;stroke:none;stroke-width:2;stroke-dasharray:none"
         x="163.09879"
         y="369.99603">Yard</tspan></text>
    <text
       xml:space="preserve"
       style="font-size:15.5398px;display:inline;fill:#000000;fill-opacity:1;stroke:#000000;stroke-width:2;stroke-dasharray:none;stroke-opacity:1"
       x="244.97983"
       y="589.7323"
       id="text6587-5"><tspan
         id="tspan6585-7"
         style="font-style:normal;font-variant:normal;font-weight:bold;font-stretch:normal;font-family:sans-serif;-inkscape-font-specification:'sans-serif Bold';fill:#000000;stroke:none;stroke-width:2;stroke-dasharray:none"
         x="244.97983"
         y="589.7323"
         sodipodi:role="line">Lobby</tspan></text>
    <text
       xml:space="preserve"
       style="font-size:13.8799px;display:inline;fill:#000000;fill-opacity:1;stroke:#000000;stroke-width:1.78637;stroke-dasharray:none;stroke-opacity:1"
       x="826.37408"
       y="603.63367"
       id="text6587-5-7"
       transform="rotate(-7.7024697)"><tspan
         id="tspan6585-7-9"
         style="font-style:normal;font-variant:normal;font-weight:bold;font-stretch:normal;font-family:sans-serif;-inkscape-font-specification:'sans-serif Bold';fill:#000000;stroke:none;stroke-width:1.78637;stroke-dasharray:none"
         x="826.37408"
         y="603.63367"
         sodipodi:role="line">Supplies</tspan></text>
    <text
       xml:space="preserve"
       style="font-size:15.5398px;display:inline;fill:#000000;fill-opacity:1;stroke:#000000;stroke-width:2;stroke-dasharray:none;stroke-opacity:1"
       x="910.33655"
       y="617.07098"
       id="text6587-5-7-6"
       transform="rotate(-7.70247)"><tspan
         id="tspan6585-7-9-5"
         style="font-style:normal;font-variant:normal;font-weight:bold;font-stretch:normal;font-family:sans-serif;-inkscape-font-specification:'sans-serif Bold';fill:#000000;stroke:none;stroke-width:2;stroke-dasharray:none"
         x="910.33655"
         y="617.07098"
         sodipodi:role="line">205</tspan></text>
    <text
       xml:space="preserve"
       style="font-size:15.5398px;display:inline;fill:#000000;fill-opacity:1;stroke:#000000;stroke-width:2;stroke-dasharray:none;stroke-opacity:1"
       x="143.13336"
       y="176.35451"
       id="text6587-5-2"><tspan
         id="tspan6585-7-7"
         style="font-style:normal;font-variant:normal;font-weight:bold;font-stretch:normal;font-family:sans-serif;-inkscape-font-specification:'sans-serif Bold';fill:#000000;stroke:none;stroke-width:2;stroke-dasharray:none"
         x="143.13336"
         y="176.35451"
         sodipodi:role="line">Office</tspan></text>
    <text
       xml:space="preserve"
       style="text-align:start;writing-mode:lr-tb;direction:ltr;text-anchor:start;fill:#000000;stroke:#c8c8c8;stroke-width:2;stroke-dasharray:none;stroke-opacity:1"
       x="237.71732"
       y="573.66492"
       id="text211"><tspan
         sodipodi:role="line"
         id="tspan211" /></text>
    <text
       xml:space="preserve"
       style="font-size:15.5398px;text-align:center;text-anchor:middle;display:inline;fill:#000000;fill-opacity:1;stroke:#000000;stroke-width:2;stroke-dasharray:none;stroke-opacity:1"
       x="66.214798"
       y="334.53625"
       id="text6587-5-2-13"><tspan
         id="tspan6585-7-7-8"
         style="font-style:normal;font-variant:normal;font-weight:bold;font-stretch:normal;font-family:sans-serif;-inkscape-font-specification:'sans-serif Bold';text-align:center;text-anchor:middle;fill:#000000;stroke:none;stroke-width:2;stroke-dasharray:none"
         x="66.214798"
         y="334.53625"
         sodipodi:role="line">Quiet</tspan><tspan
         style="font-style:normal;font-variant:normal;font-weight:bold;font-stretch:normal;font-family:sans-serif;-inkscape-font-specification:'sans-serif Bold';text-align:center;text-anchor:middle;fill:#000000;stroke:none;stroke-width:2;stroke-dasharray:none"
         x="66.214798"
         y="353.961"
         sodipodi:role="line"
         id="tspan213">study</tspan></text>
    <text
       xml:space="preserve"
       style="font-size:15.5398px;display:inline;fill:#000000;fill-opacity:1;stroke:#000000;stroke-width:2;stroke-dasharray:none;stroke-opacity:1"
       x="851.59625"
       y="151.52586"
       id="text6587-5-6-2"><tspan
         id="tspan6585-7-0-0"
         style="font-style:normal;font-variant:normal;font-weight:bold;font-stretch:normal;font-family:sans-serif;-inkscape-font-specification:'sans-serif Bold';fill:#000000;stroke:none;stroke-width:2;stroke-dasharray:none"
         x="851.59625"
         y="151.52586"
         sodipodi:role="line">210</tspan></text>
    <text
       xml:space="preserve"
       style="font-size:32px;line-height:1.25;font-family:Futura;-inkscape-font-specification:Futura;text-align:center;text-decoration-color:#000000;letter-spacing:1.5px;word-spacing:0px;text-anchor:middle;fill:#ff00ff;stroke:#808080;stroke-width:4.53543"
       x="925.32935"
       y="631.62079"
       id="text1"><tspan
         sodipodi:role="line"
         id="tspan1"
         x="925.32935"
         y="631.62079" /></text>
    <text
       xml:space="preserve"
       style="font-size:25.7948px;display:inline;fill:#000000;fill-opacity:1;stroke:#000000;stroke-width:2;stroke-dasharray:none;stroke-opacity:1"
       x="117.85125"
       y="52.898849"
       id="text6587-8"><tspan
         sodipodi:role="line"
         id="tspan6585-4"
         style="font-style:normal;font-variant:normal;font-weight:bold;font-stretch:normal;font-family:sans-serif;-inkscape-font-specification:'sans-serif Bold';fill:#000000;stroke:none;stroke-width:2;stroke-dasharray:none"
         x="117.85125"
         y="52.898849">Ground Floor</tspan></text>
    <text
       xml:space="preserve"
       style="font-size:25.7948px;display:inline;fill:#000000;fill-opacity:1;stroke:#000000;stroke-width:2;stroke-dasharray:none;stroke-opacity:1"
       x="682.93494"
       y="47.235092"
       id="text6587-8-3"><tspan
         sodipodi:role="line"
         id="tspan6585-4-8"
         style="font-style:normal;font-variant:normal;font-weight:bold;font-stretch:normal;font-family:sans-serif;-inkscape-font-specification:'sans-serif Bold';fill:#000000;stroke:none;stroke-width:2;stroke-dasharray:none"
         x="682.93494"
         y="47.235092">Second Floor</tspan></text>
  </g>
</svg>
